HIERARCHY
ROOT Hips
{
	OFFSET -0.001795 -0.223333 0.028219
	CHANNELS 6 Xposition Yposition Zposition Zrotation Yrotation Xrotation 
	JOINT LeftUpLeg
	{
		OFFSET 0.069520 -0.091406 -0.006815
		CHANNELS 3 Zrotation Yrotation Xrotation
		JOINT LeftLeg
		{
			OFFSET 0.034277 -0.375199 -0.004496
			CHANNELS 3 Zrotation Yrotation Xrotation
			JOINT LeftFoot
			{
				OFFSET -0.013596 -0.397961 -0.043693
				CHANNELS 3 Zrotation Yrotation Xrotation
				JOINT LeftToe
				{
					OFFSET 0.026358 -0.055791 0.119288
					CHANNELS 3 Zrotation Yrotation Xrotation
					End Site
					{
						OFFSET 0.000000 0.000000 0.000000
					}
				}
			}
		}
	}
	JOINT RightUpLeg
	{
		OFFSET -0.067670 -0.090522 -0.004320
		CHANNELS 3 Zrotation Yrotation Xrotation
		JOINT RightLeg
		{
			OFFSET -0.038290 -0.382569 -0.008850
			CHANNELS 3 Zrotation Yrotation Xrotation
			JOINT RightFoot
			{
				OFFSET 0.015774 -0.398415 -0.042312
				CHANNELS 3 Zrotation Yrotation Xrotation
				JOINT RightToe
				{
					OFFSET -0.025372 -0.048144 0.123348
					CHANNELS 3 Zrotation Yrotation Xrotation
					End Site
					{
						OFFSET 0.000000 0.000000 0.000000
					}
				}
			}
		}
	}
	JOINT Spine
	{
		OFFSET -0.002533 0.108963 -0.026696
		CHANNELS 3 Zrotation Yrotation Xrotation
		JOINT Spine1
		{
			OFFSET 0.005487 0.135180 0.001092
			CHANNELS 3 Zrotation Yrotation Xrotation
			JOINT Spine2
			{
				OFFSET 0.001457 0.052922 0.025425
				CHANNELS 3 Zrotation Yrotation Xrotation
				JOINT Neck
				{
					OFFSET -0.002778 0.213870 -0.042857
					CHANNELS 3 Zrotation Yrotation Xrotation
					JOINT Head
					{
						OFFSET 0.005152 0.064970 0.051349
						CHANNELS 3 Zrotation Yrotation Xrotation
						End Site
						{
							OFFSET 0.000000 0.000000 0.000000
						}
					}
				}
				JOINT LeftShoulder
				{
					OFFSET 0.078845 0.121749 -0.034090
					CHANNELS 3 Zrotation Yrotation Xrotation
					JOINT LeftArm
					{
						OFFSET 0.090977 0.030469 -0.008868
						CHANNELS 3 Zrotation Yrotation Xrotation
						JOINT LeftForeArm
						{
							OFFSET 0.259612 -0.012772 -0.027456
							CHANNELS 3 Zrotation Yrotation Xrotation
							JOINT LeftHand
							{
								OFFSET 0.249234 0.008986 -0.001171
								CHANNELS 3 Zrotation Yrotation Xrotation
								End Site
								{
									OFFSET 0.000000 0.000000 0.000000
								}
							}
						}
					}
				}
				JOINT RightShoulder
				{
					OFFSET -0.081759 0.118833 -0.038615
					CHANNELS 3 Zrotation Yrotation Xrotation
					JOINT RightArm
					{
						OFFSET -0.096012 0.032551 -0.009143
						CHANNELS 3 Zrotation Yrotation Xrotation
						JOINT RightForeArm
						{
							OFFSET -0.253742 -0.013329 -0.021401
							CHANNELS 3 Zrotation Yrotation Xrotation
							JOINT RightHand
							{
								OFFSET -0.255298 0.007772 -0.005559
								CHANNELS 3 Zrotation Yrotation Xrotation
								End Site
								{
									OFFSET 0.000000 0.000000 0.000000
								}
							}
						}
					}
				}
			}
		}
	}
}
MOTION
Frames: 6
Frame Time: 0.050000
0.080872 0.944813 0.457037 -23.704684 26.357377 -15.111925 13.757231 -0.943066 -9.741616 -1.819849 -2.058721 22.692374 0.847757 5.003388 4.981267 0.000000 0.000000 0.000000 -10.429057 -8.597690 -51.182205 -4.442059 -3.888007 127.837311 3.113010 16.654485 -5.562785 0.000000 0.000000 0.000000 0.643612 -0.495502 7.660523 3.729370 -2.089525 1.458909 -1.034060 1.437292 7.580300 16.808344 -8.833759 -13.700390 0.000000 0.000000 0.000000 -13.151068 -2.702992 -3.082281 -54.358149 8.459549 -10.635187 -8.114231 -28.934880 1.876101 0.000000 0.000000 0.000000 22.780881 -0.601191 2.945229 53.390166 5.445379 -4.433041 -9.858417 33.316534 0.080206 0.000000 0.000000 0.000000 
0.087803 0.941532 0.450228 -17.789827 22.692967 -10.907001 8.134129 -0.608216 -7.217609 -2.205084 -0.986872 17.051342 2.833945 7.949330 4.360626 0.000000 0.000000 0.000000 -9.946126 -4.402382 -41.534638 -3.200498 -7.899646 120.727268 1.361208 9.477751 -5.643840 0.000000 0.000000 0.000000 -0.853914 -0.217026 4.878600 2.113459 -1.367397 2.365386 -1.785720 1.991059 5.940935 13.896876 -7.064503 -12.930623 0.000000 0.000000 0.000000 -14.539195 -2.849051 -3.021414 -54.373492 9.514271 -10.832083 -5.202630 -24.259636 1.188839 0.000000 0.000000 0.000000 21.017596 0.081276 2.420875 56.475603 4.163357 -4.483840 -9.615513 34.727594 -0.018478 0.000000 0.000000 0.000000 
0.092106 0.939824 0.442548 -13.796508 18.695491 -7.464228 4.244274 -0.534927 -6.888926 -2.746669 -0.405666 13.390628 4.551013 11.276837 5.465892 0.000000 0.000000 0.000000 -8.644298 -1.483818 -31.610847 -0.677699 -10.996157 111.321670 0.930561 2.210345 0.274743 0.000000 0.000000 0.000000 -2.051238 -0.093038 2.608587 0.076255 -0.389192 3.321822 -0.472435 1.508277 3.875410 11.581102 -5.856141 -12.176873 0.000000 0.000000 0.000000 -16.478056 -2.066473 -3.169263 -52.624586 11.338485 -10.895780 -3.546853 -21.533556 0.958287 0.000000 0.000000 0.000000 19.741918 2.716860 2.812142 57.385644 4.105425 -4.090701 -7.937104 35.985278 0.051369 0.000000 0.000000 0.000000 
0.094173 0.934928 0.433269 -10.052147 12.752504 -5.112452 1.042427 -0.556326 -6.595513 -4.179144 0.146018 10.564411 7.367991 16.097453 6.641868 0.000000 0.000000 0.000000 -6.778591 0.247717 -19.784801 4.609419 -12.848101 97.645709 -1.246135 -4.813499 3.588282 0.000000 0.000000 0.000000 -2.709801 -0.030664 0.241532 -2.486649 0.968138 4.105404 0.555047 3.090064 2.850230 8.641361 -4.195157 -11.127419 0.000000 0.000000 0.000000 -16.572913 -1.119632 -3.192061 -51.650501 12.177568 -10.942502 -4.718079 -19.512060 1.163546 0.000000 0.000000 0.000000 20.618993 5.009864 3.642410 56.395455 5.511374 -3.337339 -5.392335 36.265411 0.553235 0.000000 0.000000 0.000000 
0.094227 0.931160 0.420174 -8.122455 8.181219 -2.811655 -0.931929 -0.906742 -9.202407 -4.405225 0.307145 10.323417 9.737025 20.062601 8.312348 0.000000 0.000000 0.000000 -3.757016 0.608106 -9.549299 8.086739 -10.792171 82.839665 -3.773035 -10.266768 3.157655 0.000000 0.000000 0.000000 -2.630879 0.028104 -2.510377 -4.450610 2.062370 4.129495 1.835510 3.460591 2.446700 6.257115 -2.664479 -11.531710 0.000000 0.000000 0.000000 -17.167654 -0.394052 -3.146499 -51.663530 12.240673 -10.941146 -4.548084 -18.465448 1.166420 0.000000 0.000000 0.000000 20.096994 5.327434 3.099384 56.545782 6.111213 -2.851825 -2.783628 36.681814 1.140128 0.000000 0.000000 0.000000 
0.091616 0.924383 0.402415 -5.684562 3.750043 -1.405772 -3.686244 -1.499592 -12.321218 -3.876335 0.310035 11.623873 12.445025 24.177991 10.003545 0.000000 0.000000 0.000000 -1.963168 -0.087537 1.261892 9.654167 -6.625505 65.175715 -3.491075 -10.537255 7.115333 0.000000 0.000000 0.000000 -2.630914 0.055752 -3.090623 -6.427933 3.172338 3.898695 3.235380 3.873794 1.160171 4.198226 -1.654626 -10.279912 0.000000 0.000000 0.000000 -17.348593 0.682993 -3.224769 -52.068820 11.965271 -10.848696 -3.998853 -18.692593 1.159408 0.000000 0.000000 0.000000 19.099082 5.865810 2.654563 56.742684 6.226351 -2.495421 0.549899 37.864970 1.984052 0.000000 0.000000 0.000000 
